<mxfile host="app.diagrams.net" modified="2023-12-14T11:28:19.456Z" agent="Mozilla/5.0 (Windows NT 10.0; Win64; x64) AppleWebKit/537.36 (KHTML, like Gecko) Chrome/120.0.0.0 Safari/537.36 Edg/120.0.0.0" etag="Lm5bYUoJwx0PcgguD8qx" version="22.1.8" type="google">
  <diagram name="Страница — 1" id="UqFN_hbQl6P6WrepG5m6">
    <mxGraphModel grid="1" page="1" gridSize="10" guides="1" tooltips="1" connect="1" arrows="1" fold="1" pageScale="1" pageWidth="827" pageHeight="1169" math="0" shadow="0">
      <root>
        <mxCell id="0" />
        <mxCell id="1" parent="0" />
        <mxCell id="TBHw-5-NA8dqy6t7AHN0-1" value="Клиент" style="shape=umlActor;verticalLabelPosition=bottom;verticalAlign=top;html=1;outlineConnect=0;" vertex="1" parent="1">
          <mxGeometry x="130" y="230" width="30" height="60" as="geometry" />
        </mxCell>
        <mxCell id="TBHw-5-NA8dqy6t7AHN0-2" value="Поиск тура" style="ellipse;whiteSpace=wrap;html=1;" vertex="1" parent="1">
          <mxGeometry x="280" y="120" width="90" height="60" as="geometry" />
        </mxCell>
        <mxCell id="TBHw-5-NA8dqy6t7AHN0-3" value="Просмотр информации о туре" style="ellipse;whiteSpace=wrap;html=1;" vertex="1" parent="1">
          <mxGeometry x="280" y="190" width="90" height="60" as="geometry" />
        </mxCell>
        <mxCell id="TBHw-5-NA8dqy6t7AHN0-4" value="Бронирование тура" style="ellipse;whiteSpace=wrap;html=1;" vertex="1" parent="1">
          <mxGeometry x="280" y="260" width="90" height="60" as="geometry" />
        </mxCell>
        <mxCell id="TBHw-5-NA8dqy6t7AHN0-5" value="Оставить пожелания" style="ellipse;whiteSpace=wrap;html=1;" vertex="1" parent="1">
          <mxGeometry x="280" y="330" width="90" height="60" as="geometry" />
        </mxCell>
        <mxCell id="TBHw-5-NA8dqy6t7AHN0-28" style="edgeStyle=none;rounded=0;orthogonalLoop=1;jettySize=auto;html=1;entryX=1;entryY=0.5;entryDx=0;entryDy=0;" edge="1" parent="1" source="TBHw-5-NA8dqy6t7AHN0-13" target="TBHw-5-NA8dqy6t7AHN0-4">
          <mxGeometry relative="1" as="geometry" />
        </mxCell>
        <mxCell id="TBHw-5-NA8dqy6t7AHN0-34" style="edgeStyle=none;rounded=0;orthogonalLoop=1;jettySize=auto;html=1;entryX=0;entryY=0.5;entryDx=0;entryDy=0;" edge="1" parent="1" source="TBHw-5-NA8dqy6t7AHN0-13" target="TBHw-5-NA8dqy6t7AHN0-31">
          <mxGeometry relative="1" as="geometry" />
        </mxCell>
        <mxCell id="TBHw-5-NA8dqy6t7AHN0-35" style="edgeStyle=none;rounded=0;orthogonalLoop=1;jettySize=auto;html=1;entryX=0;entryY=0.5;entryDx=0;entryDy=0;" edge="1" parent="1" source="TBHw-5-NA8dqy6t7AHN0-13" target="TBHw-5-NA8dqy6t7AHN0-32">
          <mxGeometry relative="1" as="geometry" />
        </mxCell>
        <mxCell id="TBHw-5-NA8dqy6t7AHN0-13" value="Туроператор" style="shape=umlActor;verticalLabelPosition=bottom;verticalAlign=top;html=1;outlineConnect=0;" vertex="1" parent="1">
          <mxGeometry x="550" y="130" width="30" height="60" as="geometry" />
        </mxCell>
        <mxCell id="TBHw-5-NA8dqy6t7AHN0-22" style="edgeStyle=none;rounded=0;orthogonalLoop=1;jettySize=auto;html=1;entryX=-0.003;entryY=0.608;entryDx=0;entryDy=0;entryPerimeter=0;" edge="1" parent="1" source="TBHw-5-NA8dqy6t7AHN0-1" target="TBHw-5-NA8dqy6t7AHN0-2">
          <mxGeometry relative="1" as="geometry" />
        </mxCell>
        <mxCell id="TBHw-5-NA8dqy6t7AHN0-23" style="edgeStyle=none;rounded=0;orthogonalLoop=1;jettySize=auto;html=1;entryX=-0.013;entryY=0.56;entryDx=0;entryDy=0;entryPerimeter=0;" edge="1" parent="1" source="TBHw-5-NA8dqy6t7AHN0-1" target="TBHw-5-NA8dqy6t7AHN0-3">
          <mxGeometry relative="1" as="geometry" />
        </mxCell>
        <mxCell id="TBHw-5-NA8dqy6t7AHN0-24" style="edgeStyle=none;rounded=0;orthogonalLoop=1;jettySize=auto;html=1;entryX=0.002;entryY=0.555;entryDx=0;entryDy=0;entryPerimeter=0;" edge="1" parent="1" source="TBHw-5-NA8dqy6t7AHN0-1" target="TBHw-5-NA8dqy6t7AHN0-4">
          <mxGeometry relative="1" as="geometry" />
        </mxCell>
        <mxCell id="TBHw-5-NA8dqy6t7AHN0-25" style="edgeStyle=none;rounded=0;orthogonalLoop=1;jettySize=auto;html=1;entryX=-0.022;entryY=0.434;entryDx=0;entryDy=0;entryPerimeter=0;" edge="1" parent="1" source="TBHw-5-NA8dqy6t7AHN0-1" target="TBHw-5-NA8dqy6t7AHN0-5">
          <mxGeometry relative="1" as="geometry" />
        </mxCell>
        <mxCell id="TBHw-5-NA8dqy6t7AHN0-26" style="edgeStyle=none;rounded=0;orthogonalLoop=1;jettySize=auto;html=1;entryX=1.026;entryY=0.558;entryDx=0;entryDy=0;entryPerimeter=0;" edge="1" parent="1" source="TBHw-5-NA8dqy6t7AHN0-13" target="TBHw-5-NA8dqy6t7AHN0-2">
          <mxGeometry relative="1" as="geometry" />
        </mxCell>
        <mxCell id="TBHw-5-NA8dqy6t7AHN0-30" value="Прогнозирование продаж" style="ellipse;whiteSpace=wrap;html=1;" vertex="1" parent="1">
          <mxGeometry x="660" y="110" width="110" height="70" as="geometry" />
        </mxCell>
        <mxCell id="TBHw-5-NA8dqy6t7AHN0-31" value="Формирование тура" style="ellipse;whiteSpace=wrap;html=1;" vertex="1" parent="1">
          <mxGeometry x="660" y="180" width="110" height="70" as="geometry" />
        </mxCell>
        <mxCell id="TBHw-5-NA8dqy6t7AHN0-32" value="Добавление тура" style="ellipse;whiteSpace=wrap;html=1;" vertex="1" parent="1">
          <mxGeometry x="660" y="250" width="110" height="70" as="geometry" />
        </mxCell>
        <mxCell id="TBHw-5-NA8dqy6t7AHN0-33" style="edgeStyle=none;rounded=0;orthogonalLoop=1;jettySize=auto;html=1;entryX=-0.029;entryY=0.553;entryDx=0;entryDy=0;entryPerimeter=0;" edge="1" parent="1" source="TBHw-5-NA8dqy6t7AHN0-13" target="TBHw-5-NA8dqy6t7AHN0-30">
          <mxGeometry relative="1" as="geometry" />
        </mxCell>
        <mxCell id="TBHw-5-NA8dqy6t7AHN0-40" style="edgeStyle=none;rounded=0;orthogonalLoop=1;jettySize=auto;html=1;" edge="1" parent="1" source="TBHw-5-NA8dqy6t7AHN0-36" target="TBHw-5-NA8dqy6t7AHN0-38">
          <mxGeometry relative="1" as="geometry" />
        </mxCell>
        <mxCell id="TBHw-5-NA8dqy6t7AHN0-36" value="Турагент" style="shape=umlActor;verticalLabelPosition=bottom;verticalAlign=top;html=1;outlineConnect=0;" vertex="1" parent="1">
          <mxGeometry x="510" y="330" width="30" height="60" as="geometry" />
        </mxCell>
        <mxCell id="TBHw-5-NA8dqy6t7AHN0-37" value="Реализация тура" style="ellipse;whiteSpace=wrap;html=1;" vertex="1" parent="1">
          <mxGeometry x="410" y="280" width="90" height="60" as="geometry" />
        </mxCell>
        <mxCell id="TBHw-5-NA8dqy6t7AHN0-38" value="Оформление договора" style="ellipse;whiteSpace=wrap;html=1;" vertex="1" parent="1">
          <mxGeometry x="560" y="280" width="90" height="60" as="geometry" />
        </mxCell>
        <mxCell id="TBHw-5-NA8dqy6t7AHN0-39" style="edgeStyle=none;rounded=0;orthogonalLoop=1;jettySize=auto;html=1;entryX=0.679;entryY=0.943;entryDx=0;entryDy=0;entryPerimeter=0;" edge="1" parent="1" source="TBHw-5-NA8dqy6t7AHN0-36" target="TBHw-5-NA8dqy6t7AHN0-37">
          <mxGeometry relative="1" as="geometry" />
        </mxCell>
      </root>
    </mxGraphModel>
  </diagram>
</mxfile>
